<svg xmlns="http://www.w3.org/2000/svg" xmlns:xlink="http://www.w3.org/1999/xlink" width="1920" zoomAndPan="magnify" viewBox="0 0 1440 809.999993" height="1080" preserveAspectRatio="xMidYMid meet" version="1.0"><defs><clipPath id="c9b12f6d16"><path d="M 768.9375 382 L 774.9375 382 L 774.9375 389.472656 L 768.9375 389.472656 Z M 768.9375 382 " clip-rule="nonzero"/></clipPath><clipPath id="4aeff60da5"><path d="M 768.9375 389 L 774.9375 389 L 774.9375 389.472656 L 768.9375 389.472656 Z M 768.9375 389 " clip-rule="nonzero"/></clipPath><clipPath id="7e5a866bf3"><path d="M 771 388 L 773 388 L 773 389.472656 L 771 389.472656 Z M 771 388 " clip-rule="nonzero"/></clipPath><clipPath id="cf2d032c62"><path d="M 773 388 L 774.9375 388 L 774.9375 389 L 773 389 Z M 773 388 " clip-rule="nonzero"/></clipPath><clipPath id="b1b01f5c8e"><path d="M 772 387 L 774.9375 387 L 774.9375 389.472656 L 772 389.472656 Z M 772 387 " clip-rule="nonzero"/></clipPath><clipPath id="c50e7343a5"><path d="M 769 387 L 772 387 L 772 389.472656 L 769 389.472656 Z M 769 387 " clip-rule="nonzero"/></clipPath><clipPath id="22b137c49d"><path d="M 770 388 L 771 388 L 771 389.472656 L 770 389.472656 Z M 770 388 " clip-rule="nonzero"/></clipPath><clipPath id="e1ed35c266"><path d="M 773 388 L 774 388 L 774 389.472656 L 773 389.472656 Z M 773 388 " clip-rule="nonzero"/></clipPath></defs><g clip-path="url(#c9b12f6d16)"><path fill="#ffd7d2" d="M 774.183594 389.058594 C 774.152344 388.953125 774.121094 388.851562 774.085938 388.753906 C 774.0625 388.6875 774.035156 388.625 774.007812 388.5625 C 773.636719 387.675781 773.0625 387.242188 772.613281 387.03125 C 772.542969 386.890625 772.445312 386.769531 772.308594 386.671875 L 772.308594 386.433594 C 772.703125 386.308594 773.027344 386.003906 773.167969 385.773438 C 773.210938 385.710938 773.246094 385.628906 773.28125 385.535156 C 773.445312 385.550781 773.621094 385.4375 773.691406 385.246094 C 773.773438 385.027344 773.691406 384.789062 773.503906 384.71875 C 773.488281 384.710938 773.46875 384.707031 773.449219 384.703125 C 773.449219 384.703125 773.8125 383.914062 773.546875 383.167969 C 773.285156 382.421875 772.414062 382.28125 772.414062 382.28125 C 772.535156 382.253906 772.628906 382.191406 772.707031 382.097656 C 772.386719 382.140625 772.070312 381.996094 771.839844 382.027344 C 771.609375 382.0625 771.507812 382.234375 771.507812 382.234375 C 771.507812 382.234375 771.304688 382.132812 771.074219 382.179688 C 770.839844 382.226562 770.648438 382.492188 770.363281 382.566406 C 770.503906 382.617188 770.660156 382.621094 770.832031 382.582031 C 770.832031 382.582031 770.296875 382.9375 770.152344 383.5625 C 770.011719 384.183594 770.242188 384.808594 770.242188 384.808594 L 770.246094 384.808594 C 770.152344 384.914062 770.121094 385.085938 770.183594 385.246094 C 770.253906 385.4375 770.429688 385.550781 770.59375 385.535156 C 770.628906 385.628906 770.664062 385.710938 770.707031 385.773438 C 770.847656 386.003906 771.171875 386.308594 771.570312 386.433594 L 771.566406 386.671875 C 771.429688 386.769531 771.332031 386.890625 771.261719 387.03125 C 770.8125 387.242188 770.238281 387.675781 769.867188 388.5625 C 769.839844 388.625 769.816406 388.6875 769.789062 388.753906 C 769.753906 388.851562 769.722656 388.953125 769.691406 389.058594 L 768.9375 389.058594 L 768.9375 389.449219 L 774.9375 389.449219 L 774.9375 389.058594 Z M 774.183594 389.058594 " fill-opacity="1" fill-rule="nonzero"/></g><g clip-path="url(#4aeff60da5)"><path fill="#b6b6b7" d="M 768.9375 389.058594 L 774.9375 389.058594 L 774.9375 389.449219 L 768.9375 389.449219 Z M 768.9375 389.058594 " fill-opacity="1" fill-rule="nonzero"/></g><path fill="#c2e6f9" d="M 771.550781 387.605469 L 771.707031 388.226562 C 771.707031 388.226562 771.507812 388.21875 771.429688 388.003906 C 771.347656 387.789062 771.53125 387.519531 771.53125 387.519531 Z M 771.550781 387.605469 " fill-opacity="1" fill-rule="nonzero"/><path fill="#c2e6f9" d="M 772.347656 387.519531 C 772.347656 387.519531 772.527344 387.789062 772.449219 388.003906 C 772.367188 388.21875 772.167969 388.226562 772.167969 388.226562 L 772.324219 387.605469 Z M 772.347656 387.519531 " fill-opacity="1" fill-rule="nonzero"/><path fill="#eaebec" d="M 772.132812 388.347656 L 772.132812 388.753906 L 771.742188 388.753906 L 771.742188 388.347656 C 771.785156 388.410156 771.855469 388.449219 771.9375 388.449219 C 772.019531 388.449219 772.089844 388.410156 772.132812 388.347656 Z M 772.132812 388.347656 " fill-opacity="1" fill-rule="nonzero"/><path fill="#b6b6b7" d="M 772.167969 388.226562 C 772.167969 388.273438 772.15625 388.3125 772.132812 388.347656 C 772.089844 388.410156 772.019531 388.449219 771.9375 388.449219 C 771.855469 388.449219 771.785156 388.410156 771.742188 388.347656 C 771.71875 388.3125 771.707031 388.273438 771.707031 388.226562 C 771.707031 388.105469 771.8125 388.003906 771.9375 388.003906 C 772.066406 388.003906 772.167969 388.105469 772.167969 388.226562 Z M 772.167969 388.226562 " fill-opacity="1" fill-rule="nonzero"/><path fill="#524956" d="M 772.417969 387.210938 C 772.417969 387.277344 772.402344 387.34375 772.375 387.402344 C 772.375 387.402344 772.304688 387.3125 772.191406 387.242188 L 772.191406 386.8125 C 772.234375 386.839844 772.273438 386.871094 772.308594 386.910156 C 772.375 386.992188 772.417969 387.097656 772.417969 387.210938 Z M 772.417969 387.210938 " fill-opacity="1" fill-rule="nonzero"/><path fill="#524956" d="M 771.9375 386.742188 L 771.9375 387.164062 C 771.839844 387.164062 771.753906 387.199219 771.683594 387.242188 L 771.683594 386.8125 C 771.757812 386.769531 771.84375 386.742188 771.9375 386.742188 Z M 771.9375 386.742188 " fill-opacity="1" fill-rule="nonzero"/><path fill="#655f68" d="M 772.191406 386.8125 L 772.191406 387.242188 C 772.121094 387.199219 772.035156 387.164062 771.9375 387.164062 L 771.9375 386.742188 C 772.03125 386.742188 772.117188 386.769531 772.191406 386.8125 Z M 772.191406 386.8125 " fill-opacity="1" fill-rule="nonzero"/><path fill="#655f68" d="M 771.683594 386.8125 L 771.683594 387.242188 C 771.570312 387.3125 771.5 387.402344 771.5 387.402344 C 771.472656 387.34375 771.457031 387.277344 771.457031 387.210938 C 771.457031 387.097656 771.5 386.992188 771.566406 386.910156 C 771.601562 386.871094 771.640625 386.839844 771.683594 386.8125 Z M 771.683594 386.8125 " fill-opacity="1" fill-rule="nonzero"/><path fill="#655f68" d="M 772.324219 387.605469 L 772.167969 388.226562 C 772.167969 388.105469 772.066406 388.003906 771.9375 388.003906 C 771.8125 388.003906 771.707031 388.105469 771.707031 388.226562 L 771.550781 387.605469 C 771.550781 387.605469 771.734375 387.390625 771.9375 387.390625 C 772.140625 387.390625 772.324219 387.605469 772.324219 387.605469 Z M 772.324219 387.605469 " fill-opacity="1" fill-rule="nonzero"/><g clip-path="url(#7e5a866bf3)"><path fill="#655f68" d="M 771.136719 388.753906 L 772.738281 388.753906 L 772.738281 389.058594 L 771.136719 389.058594 Z M 771.136719 388.753906 " fill-opacity="1" fill-rule="nonzero"/></g><path fill="#52a7d7" d="M 771.566406 386.671875 L 771.566406 386.910156 C 771.5 386.992188 771.457031 387.097656 771.457031 387.210938 C 771.457031 387.277344 771.472656 387.34375 771.5 387.402344 L 771.53125 387.519531 C 771.417969 387.488281 771.324219 387.476562 771.222656 387.496094 C 771.179688 387.503906 771.140625 387.464844 771.148438 387.421875 C 771.167969 387.28125 771.203125 387.148438 771.261719 387.03125 C 771.332031 386.890625 771.429688 386.769531 771.566406 386.671875 Z M 771.566406 386.671875 " fill-opacity="1" fill-rule="nonzero"/><path fill="#52a7d7" d="M 772.726562 387.421875 C 772.734375 387.464844 772.695312 387.503906 772.652344 387.496094 C 772.550781 387.476562 772.457031 387.488281 772.347656 387.519531 L 772.375 387.402344 C 772.402344 387.34375 772.417969 387.277344 772.417969 387.210938 C 772.417969 387.097656 772.375 386.992188 772.308594 386.910156 L 772.308594 386.671875 C 772.445312 386.769531 772.542969 386.890625 772.613281 387.03125 C 772.671875 387.148438 772.707031 387.28125 772.726562 387.421875 Z M 772.726562 387.421875 " fill-opacity="1" fill-rule="nonzero"/><path fill="#fec4b9" d="M 773.503906 384.71875 C 773.691406 384.789062 773.773438 385.027344 773.691406 385.246094 C 773.621094 385.4375 773.445312 385.550781 773.28125 385.535156 C 773.359375 385.3125 773.417969 385.019531 773.449219 384.703125 C 773.46875 384.707031 773.488281 384.710938 773.503906 384.71875 Z M 773.503906 384.71875 " fill-opacity="1" fill-rule="nonzero"/><path fill="#604533" d="M 773.546875 383.167969 C 773.8125 383.914062 773.449219 384.703125 773.449219 384.703125 C 773.476562 384.300781 773.222656 383.972656 772.882812 383.664062 C 772.898438 383.765625 772.878906 383.878906 772.84375 383.988281 C 772.652344 383.714844 772.394531 383.503906 772.078125 383.34375 C 772.007812 383.652344 772.019531 383.953125 772.117188 384.234375 C 771.75 383.96875 771.542969 383.625 771.5 383.210938 C 771.425781 383.582031 771.222656 383.882812 770.867188 384.101562 C 770.808594 383.984375 770.804688 383.839844 770.832031 383.683594 C 770.742188 384.070312 770.617188 384.417969 770.425781 384.703125 C 770.40625 384.707031 770.390625 384.710938 770.371094 384.71875 C 770.320312 384.738281 770.277344 384.769531 770.246094 384.808594 L 770.242188 384.808594 C 770.242188 384.808594 770.011719 384.183594 770.152344 383.5625 C 770.296875 382.9375 770.832031 382.582031 770.832031 382.582031 C 770.660156 382.621094 770.503906 382.617188 770.363281 382.566406 C 770.648438 382.492188 770.839844 382.226562 771.074219 382.179688 C 771.304688 382.132812 771.507812 382.234375 771.507812 382.234375 C 771.507812 382.234375 771.609375 382.0625 771.839844 382.027344 C 772.070312 381.996094 772.386719 382.140625 772.707031 382.097656 C 772.628906 382.191406 772.535156 382.253906 772.414062 382.28125 C 772.414062 382.28125 773.285156 382.421875 773.546875 383.167969 Z M 773.546875 383.167969 " fill-opacity="1" fill-rule="nonzero"/><path fill="#543927" d="M 772.675781 384.699219 C 772.675781 384.777344 772.636719 384.816406 772.554688 384.816406 C 772.472656 384.816406 772.429688 384.777344 772.429688 384.699219 C 772.429688 384.617188 772.472656 384.578125 772.554688 384.578125 C 772.636719 384.578125 772.675781 384.617188 772.675781 384.699219 Z M 772.675781 384.699219 " fill-opacity="1" fill-rule="nonzero"/><path fill="#f7b6ad" d="M 772.1875 385.097656 C 772.1875 385.261719 772.105469 385.339844 771.9375 385.339844 C 771.769531 385.339844 771.6875 385.261719 771.6875 385.097656 C 771.6875 384.9375 771.769531 384.855469 771.9375 384.855469 C 772.105469 384.855469 772.1875 384.9375 772.1875 385.097656 Z M 772.1875 385.097656 " fill-opacity="1" fill-rule="nonzero"/><path fill="#543927" d="M 771.445312 384.699219 C 771.445312 384.777344 771.402344 384.816406 771.320312 384.816406 C 771.238281 384.816406 771.199219 384.777344 771.199219 384.699219 C 771.199219 384.617188 771.238281 384.578125 771.320312 384.578125 C 771.402344 384.578125 771.445312 384.617188 771.445312 384.699219 Z M 771.445312 384.699219 " fill-opacity="1" fill-rule="nonzero"/><path fill="#fec4b9" d="M 770.59375 385.535156 C 770.429688 385.550781 770.253906 385.4375 770.183594 385.246094 C 770.121094 385.085938 770.152344 384.914062 770.246094 384.808594 C 770.277344 384.769531 770.320312 384.738281 770.371094 384.71875 C 770.390625 384.710938 770.40625 384.707031 770.425781 384.703125 C 770.457031 385.019531 770.515625 385.3125 770.59375 385.535156 Z M 770.59375 385.535156 " fill-opacity="1" fill-rule="nonzero"/><g clip-path="url(#cf2d032c62)"><path fill="#52a7d7" d="M 773.648438 388.859375 L 774.085938 388.753906 C 774.0625 388.6875 774.035156 388.625 774.007812 388.5625 L 773.574219 388.679688 C 773.589844 388.742188 773.613281 388.804688 773.648438 388.859375 Z M 773.648438 388.859375 " fill-opacity="1" fill-rule="nonzero"/></g><path fill="#52a7d7" d="M 770.265625 388.667969 L 769.867188 388.5625 C 769.839844 388.625 769.816406 388.6875 769.789062 388.753906 L 770.207031 388.855469 C 770.230469 388.800781 770.246094 388.738281 770.265625 388.667969 Z M 770.265625 388.667969 " fill-opacity="1" fill-rule="nonzero"/><g clip-path="url(#b1b01f5c8e)"><path fill="#c2e6f9" d="M 773.417969 388.71875 L 773.417969 388.4375 C 773.417969 388.402344 773.449219 388.371094 773.484375 388.371094 C 773.515625 388.371094 773.546875 388.394531 773.550781 388.425781 C 773.542969 388.519531 773.554688 388.601562 773.574219 388.679688 L 774.007812 388.5625 C 773.636719 387.675781 773.0625 387.242188 772.613281 387.03125 C 772.671875 387.148438 772.707031 387.28125 772.726562 387.421875 C 772.734375 387.464844 772.695312 387.503906 772.652344 387.496094 C 772.550781 387.476562 772.457031 387.488281 772.347656 387.519531 C 772.347656 387.519531 772.527344 387.789062 772.449219 388.003906 C 772.367188 388.21875 772.167969 388.226562 772.167969 388.226562 C 772.167969 388.273438 772.15625 388.3125 772.132812 388.347656 L 772.132812 388.753906 L 772.738281 388.753906 L 772.738281 389.058594 L 773.417969 389.058594 Z M 773.417969 388.71875 " fill-opacity="1" fill-rule="nonzero"/></g><g clip-path="url(#c50e7343a5)"><path fill="#c2e6f9" d="M 771.429688 388.003906 C 771.347656 387.789062 771.53125 387.519531 771.53125 387.519531 C 771.417969 387.488281 771.324219 387.476562 771.222656 387.496094 C 771.179688 387.503906 771.140625 387.464844 771.148438 387.421875 C 771.167969 387.28125 771.203125 387.148438 771.261719 387.03125 C 770.8125 387.242188 770.238281 387.675781 769.867188 388.5625 L 770.265625 388.667969 C 770.285156 388.59375 770.300781 388.515625 770.316406 388.425781 C 770.328125 388.398438 770.355469 388.378906 770.386719 388.378906 C 770.425781 388.378906 770.460938 388.410156 770.460938 388.449219 L 770.460938 389.058594 L 771.136719 389.058594 L 771.136719 388.753906 L 771.742188 388.753906 L 771.742188 388.347656 C 771.71875 388.3125 771.707031 388.273438 771.707031 388.226562 C 771.707031 388.226562 771.507812 388.21875 771.429688 388.003906 Z M 771.429688 388.003906 " fill-opacity="1" fill-rule="nonzero"/></g><path fill="#2f84b9" d="M 770.460938 388.917969 L 770.460938 388.71875 L 770.265625 388.667969 C 770.246094 388.738281 770.230469 388.800781 770.207031 388.855469 Z M 770.460938 388.917969 " fill-opacity="1" fill-rule="nonzero"/><path fill="#8ecaef" d="M 770.460938 388.449219 C 770.460938 388.410156 770.425781 388.378906 770.386719 388.378906 C 770.355469 388.378906 770.328125 388.398438 770.316406 388.425781 C 770.300781 388.515625 770.285156 388.59375 770.265625 388.667969 L 770.460938 388.71875 Z M 770.460938 388.449219 " fill-opacity="1" fill-rule="nonzero"/><g clip-path="url(#22b137c49d)"><path fill="#fec4b9" d="M 770.207031 388.855469 C 770.179688 388.9375 770.144531 389.007812 770.109375 389.058594 L 770.460938 389.058594 L 770.460938 388.917969 Z M 770.207031 388.855469 " fill-opacity="1" fill-rule="nonzero"/></g><path fill="#2f84b9" d="M 773.417969 388.71875 L 773.417969 388.917969 L 773.648438 388.859375 C 773.613281 388.804688 773.589844 388.742188 773.574219 388.679688 Z M 773.417969 388.71875 " fill-opacity="1" fill-rule="nonzero"/><g clip-path="url(#e1ed35c266)"><path fill="#fec4b9" d="M 773.648438 388.859375 L 773.417969 388.917969 L 773.417969 389.058594 L 773.816406 389.058594 C 773.746094 388.996094 773.691406 388.933594 773.648438 388.859375 Z M 773.648438 388.859375 " fill-opacity="1" fill-rule="nonzero"/></g><path fill="#8ecaef" d="M 773.550781 388.425781 C 773.546875 388.394531 773.515625 388.371094 773.484375 388.371094 C 773.449219 388.371094 773.417969 388.402344 773.417969 388.4375 L 773.417969 388.71875 L 773.574219 388.679688 C 773.554688 388.601562 773.542969 388.519531 773.550781 388.425781 Z M 773.550781 388.425781 " fill-opacity="1" fill-rule="nonzero"/><path fill="#f7b6ad" d="M 772.308594 386.433594 L 772.308594 386.753906 C 772.042969 386.738281 771.789062 386.667969 771.570312 386.550781 L 771.570312 386.433594 C 771.6875 386.46875 771.808594 386.492188 771.9375 386.492188 C 772.066406 386.492188 772.1875 386.46875 772.308594 386.433594 Z M 772.308594 386.433594 " fill-opacity="1" fill-rule="nonzero"/><path fill="#472d1c" d="M 772.753906 384.21875 C 772.742188 384.21875 772.730469 384.214844 772.71875 384.207031 C 772.609375 384.132812 772.441406 384.15625 772.441406 384.15625 C 772.40625 384.164062 772.375 384.140625 772.371094 384.109375 C 772.363281 384.074219 772.386719 384.046875 772.421875 384.039062 C 772.429688 384.039062 772.636719 384.003906 772.789062 384.109375 C 772.820312 384.128906 772.824219 384.164062 772.804688 384.191406 C 772.792969 384.210938 772.773438 384.21875 772.753906 384.21875 Z M 772.753906 384.21875 " fill-opacity="1" fill-rule="nonzero"/><path fill="#472d1c" d="M 771.121094 384.21875 C 771.101562 384.21875 771.082031 384.210938 771.070312 384.191406 C 771.050781 384.164062 771.058594 384.128906 771.085938 384.109375 C 771.238281 384.003906 771.445312 384.039062 771.457031 384.039062 C 771.488281 384.046875 771.511719 384.074219 771.503906 384.109375 C 771.5 384.140625 771.46875 384.164062 771.433594 384.15625 C 771.433594 384.15625 771.265625 384.132812 771.15625 384.207031 C 771.144531 384.214844 771.132812 384.21875 771.121094 384.21875 Z M 771.121094 384.21875 " fill-opacity="1" fill-rule="nonzero"/><path fill="#b6b6b7" d="M 771.707031 388.289062 C 771.707031 388.289062 771.707031 388.289062 771.703125 388.289062 C 771.695312 388.285156 771.460938 388.273438 771.371094 388.023438 C 771.28125 387.785156 771.46875 387.5 771.476562 387.488281 C 771.496094 387.460938 771.535156 387.453125 771.5625 387.46875 C 771.589844 387.488281 771.601562 387.523438 771.582031 387.554688 C 771.578125 387.554688 771.417969 387.800781 771.484375 387.984375 C 771.550781 388.15625 771.703125 388.167969 771.710938 388.167969 C 771.746094 388.167969 771.769531 388.199219 771.769531 388.230469 C 771.765625 388.261719 771.742188 388.289062 771.707031 388.289062 Z M 771.707031 388.289062 " fill-opacity="1" fill-rule="nonzero"/><path fill="#b6b6b7" d="M 772.167969 388.289062 C 772.136719 388.289062 772.109375 388.261719 772.105469 388.230469 C 772.105469 388.195312 772.132812 388.167969 772.164062 388.167969 C 772.171875 388.167969 772.328125 388.15625 772.390625 387.984375 C 772.457031 387.800781 772.296875 387.554688 772.292969 387.554688 C 772.277344 387.527344 772.285156 387.488281 772.3125 387.46875 C 772.339844 387.453125 772.378906 387.460938 772.398438 387.488281 C 772.40625 387.5 772.59375 387.785156 772.503906 388.023438 C 772.414062 388.273438 772.179688 388.285156 772.171875 388.289062 C 772.167969 388.289062 772.167969 388.289062 772.167969 388.289062 Z M 772.167969 388.289062 " fill-opacity="1" fill-rule="nonzero"/><path fill="#ffc05a" d="M 772.375 387.402344 L 772.347656 387.519531 L 772.324219 387.605469 C 772.324219 387.605469 772.140625 387.390625 771.9375 387.390625 C 771.734375 387.390625 771.550781 387.605469 771.550781 387.605469 L 771.53125 387.519531 L 771.5 387.402344 C 771.5 387.402344 771.570312 387.3125 771.683594 387.242188 C 771.753906 387.199219 771.839844 387.164062 771.9375 387.164062 C 772.035156 387.164062 772.121094 387.199219 772.191406 387.242188 C 772.304688 387.3125 772.375 387.402344 772.375 387.402344 Z M 772.375 387.402344 " fill-opacity="1" fill-rule="nonzero"/><path fill="#eaeaea" d="M 862.601562 423.601562 C 857.816406 434.300781 851.703125 444.496094 844.710938 452.929688 C 835.703125 463.820312 825.246094 472 814.347656 475.148438 C 801.75 479.992188 782.722656 484.023438 760.613281 486.414062 C 759.414062 486.539062 758.21875 486.664062 757.019531 486.789062 C 721.867188 490.316406 679.597656 489.875 643.375 482.824219 C 617.925781 477.917969 595.433594 469.734375 580.628906 457.398438 C 573.195312 451.167969 567.652344 443.929688 564.628906 435.5 C 560.28125 426.75 552.28125 412.023438 555.621094 401.703125 C 555.683594 401.386719 555.808594 401.074219 555.933594 400.820312 C 557.761719 396.226562 559.96875 392.136719 562.425781 388.484375 C 563.304688 387.226562 564.1875 386.03125 565.132812 384.898438 C 565.195312 384.835938 565.195312 384.773438 565.257812 384.773438 C 584.15625 361.484375 616.601562 360.917969 647.34375 365.261719 C 661.894531 367.277344 676.132812 370.988281 690.054688 375.457031 C 715.695312 383.765625 738.878906 371.429688 761.242188 357.207031 C 762.816406 356.199219 764.328125 355.191406 765.839844 354.25 C 798.851562 332.789062 830.097656 309.941406 864.554688 347.011719 C 865.5625 348.207031 866.445312 349.464844 867.265625 350.785156 C 867.894531 351.792969 868.460938 352.863281 868.964844 353.933594 C 869.53125 355.128906 870.035156 356.386719 870.539062 357.648438 C 876.839844 375.457031 872.746094 400.820312 862.601562 423.601562 Z M 862.601562 423.601562 " fill-opacity="1" fill-rule="nonzero"/><path fill="#3f3f3f" d="M 846.792969 432.601562 C 834.253906 433.296875 810.632812 427.128906 798.660156 425.300781 C 797.085938 418.003906 778.375 405.539062 769.367188 402.707031 C 773.398438 389.492188 785.621094 383.261719 791.292969 370.046875 C 810.695312 367.90625 829.90625 366.773438 848.933594 355.066406 C 853.972656 356.953125 866.949219 357.207031 870.414062 357.773438 C 869.972656 356.515625 869.46875 355.253906 868.839844 354.058594 C 862.035156 353.367188 855.296875 352.988281 849.3125 351.605469 C 847.296875 348.585938 843.640625 343.613281 841.5 342.792969 C 833.4375 337.066406 798.03125 353.554688 784.109375 359.347656 C 778.0625 358.152344 772.328125 354.121094 765.714844 354.375 L 765.652344 354.375 C 763.949219 355.507812 762.25 356.640625 760.546875 357.710938 C 768.800781 357.648438 774.03125 359.15625 781.90625 362.871094 L 786.3125 370.738281 C 786.441406 370.738281 786.503906 370.738281 786.628906 370.675781 C 780.457031 384.332031 768.988281 388.109375 765.527344 402.960938 C 739.570312 412.652344 713.867188 422.21875 690.75 410.890625 C 685.015625 408.941406 678.085938 410.953125 672.667969 409.191406 C 662.335938 405.980469 652.132812 402.773438 642.554688 398.679688 C 635.375 386.472656 633.988281 377.347656 629.199219 372.183594 C 631.28125 369.414062 633.421875 366.710938 635.625 364.128906 C 634.175781 364.003906 632.726562 363.941406 631.28125 363.816406 C 630.523438 365.386719 627.816406 367.652344 626.304688 369.792969 C 621.199219 366.710938 612.695312 366.332031 595.875 369.101562 C 594.363281 369.351562 593.105469 370.234375 592.285156 371.554688 C 591.402344 373.003906 590.332031 375.082031 589.136719 377.410156 C 587.183594 381.3125 585.039062 386.03125 583.464844 390.375 C 577.164062 390.75 569.984375 388.421875 563.433594 387.226562 C 562.675781 388.234375 561.984375 389.304688 561.289062 390.4375 C 564.691406 390.625 575.84375 394.339844 582.332031 394.148438 C 578.742188 402.457031 590.332031 410.640625 594.425781 412.839844 C 585.921875 423.667969 579.8125 439.273438 583.84375 452.617188 C 581.449219 452.363281 579.117188 453.371094 577.542969 454.316406 C 578.550781 455.386719 579.558594 456.394531 580.566406 457.398438 C 597.324219 473.386719 619.6875 479.804688 643.3125 482.824219 C 647.785156 483.390625 652.382812 483.894531 656.917969 484.273438 C 657.296875 483.140625 657.613281 482.007812 657.800781 481.0625 C 661.078125 479.867188 664.351562 477.414062 666.117188 476.40625 C 671.535156 473.699219 679.28125 474.203125 686.023438 470.363281 C 692.261719 466.902344 695.597656 459.980469 701.269531 456.394531 C 704.734375 459.160156 745.050781 466.964844 756.453125 464.761719 C 757.082031 471.496094 757.273438 479.238281 756.957031 486.789062 C 758.15625 486.664062 759.351562 486.539062 760.546875 486.414062 C 760.484375 481.820312 761.179688 469.359375 759.980469 463 C 768.421875 456.894531 792.300781 435.625 797.78125 428.636719 C 807.355469 430.023438 832.050781 436.757812 845.277344 436.441406 C 844.207031 440.28125 844.082031 445.378906 844.710938 452.996094 C 844.710938 453.183594 844.710938 453.371094 844.773438 453.625 C 852.523438 444.875 858.320312 434.617188 862.601562 423.667969 C 863.863281 420.457031 865.058594 417.121094 866.066406 413.785156 C 856.242188 423.351562 850.003906 426.6875 846.792969 432.601562 Z M 700.070312 452.867188 C 693.835938 456.519531 690.117188 463.695312 684.257812 467.15625 C 675.378906 470.992188 666.179688 470.492188 657.109375 477.539062 C 651.125 473.386719 621.828125 465.894531 612.949219 460.859375 C 603.496094 455.828125 595.75 454.503906 587.75 453.183594 C 583.148438 438.457031 590.015625 423.289062 599.59375 412.210938 L 641.863281 402.078125 C 650.492188 406.421875 669.582031 411.140625 671.722656 412.339844 C 677.457031 414.351562 684.449219 412.402344 689.804688 414.039062 C 716.386719 420.015625 702.527344 441.792969 700.070312 452.867188 Z M 700.070312 452.867188 " fill-opacity="1" fill-rule="nonzero"/><path fill="#241f31" d="M 666.242188 377.15625 C 649.484375 377.15625 637.832031 382.316406 649.863281 390.058594 C 661.894531 397.800781 713.992188 433.925781 739.382812 430.902344 C 764.769531 427.882812 820.710938 401.640625 820.710938 390.5 C 820.710938 379.359375 804.332031 371.179688 787.132812 378.917969 C 769.933594 386.660156 759.605469 402.140625 726.910156 398.679688 C 694.214844 395.21875 679.597656 376.339844 666.242188 377.15625 Z M 666.242188 377.15625 " fill-opacity="0.14" fill-rule="nonzero"/><path fill="#ffffff" d="M 606.394531 371.617188 C 569.792969 368.976562 605.765625 413.21875 615.40625 431.785156 C 624.035156 446.386719 629.199219 458.027344 642.492188 451.546875 C 655.847656 445.128906 659.25 439.964844 668.761719 443.363281 C 678.210938 446.828125 675.1875 455.386719 688.984375 448.085938 C 702.78125 440.785156 698.433594 437.765625 710.089844 437.765625 C 721.679688 437.765625 719.097656 441.226562 732.011719 438.203125 C 744.925781 435.183594 773.777344 428.324219 783.226562 422.722656 C 818.378906 403.464844 721.050781 437.574219 700.574219 426.183594 C 681.363281 422.34375 676.824219 445.566406 663.976562 432.667969 C 657.109375 426.625 658.808594 419.765625 649.359375 426.246094 C 639.910156 432.667969 643.3125 442.167969 632.160156 434.867188 C 621.011719 427.570312 614.964844 417.246094 614.082031 405.605469 C 613.199219 393.960938 613.324219 372.878906 606.394531 371.617188 Z M 606.394531 371.617188 " fill-opacity="0.3" fill-rule="nonzero"/><path fill="#ffffff" d="M 764.769531 362.554688 C 798.789062 343.234375 809.9375 333.730469 829.78125 338.074219 C 849.5625 342.355469 849.121094 335.933594 849.121094 354.4375 C 849.121094 372.941406 850.824219 375.519531 840.492188 387.980469 C 830.160156 400.441406 816.804688 415.484375 819.386719 422.785156 C 821.96875 430.085938 830.601562 412.023438 840.933594 411.582031 C 851.265625 411.140625 848.679688 418.003906 843.957031 425.742188 C 827.578125 456.265625 778.878906 469.105469 745.429688 472.191406 C 729.050781 473.070312 720.484375 470.050781 723.882812 467.027344 C 745.304688 460.042969 767.792969 457.398438 798.789062 445.503906 C 816.867188 438.203125 828.460938 436.882812 828.082031 432.601562 C 827.640625 428.324219 821.214844 437.324219 811.324219 435.183594 C 801.433594 433.042969 800.109375 427.882812 802.695312 425.300781 C 805.277344 422.722656 814.285156 409.820312 824.617188 393.078125 C 834.949219 376.339844 840.113281 375.015625 832.804688 361.234375 C 825.5 347.453125 825.5 341.03125 806.09375 347.890625 C 786.753906 354.816406 766.09375 373.316406 764.769531 362.554688 Z M 764.769531 362.554688 " fill-opacity="0.3" fill-rule="nonzero"/><path fill="#241f31" d="M 814.347656 475.148438 C 760.546875 496.042969 588 500.449219 564.628906 435.5 C 560.28125 426.75 552.28125 412.023438 555.621094 401.703125 C 557.761719 396.542969 560.03125 392.074219 562.425781 388.484375 C 563.304688 387.164062 564.1875 385.90625 565.132812 384.898438 C 565.195312 384.835938 565.195312 384.773438 565.257812 384.773438 C 551.527344 425.742188 602.804688 459.097656 627.183594 469.609375 C 640.226562 473.953125 637.074219 462.183594 642.683594 459.726562 C 659.25 450.539062 687.976562 464.890625 702.78125 454.757812 C 708.386719 448.589844 707.757812 447.960938 715.820312 447.960938 C 723.882812 447.960938 763.574219 437.449219 774.09375 433.734375 C 784.613281 430.023438 795.765625 428.765625 788.960938 435.625 C 782.15625 442.421875 736.925781 447.394531 723.253906 454.820312 C 709.585938 462.246094 692.261719 469.042969 698.433594 475.273438 C 732.765625 495.476562 806.726562 470.992188 839.734375 448.652344 C 853.34375 436.882812 857.058594 423.855469 861.40625 407.808594 C 865.753906 391.695312 858.320312 394.210938 853.34375 396.667969 C 848.367188 399.121094 846.539062 389.242188 854.601562 381.183594 C 861.972656 373.820312 867.769531 360.730469 867.203125 350.914062 C 887.929688 384.898438 854.414062 463.628906 814.347656 475.148438 Z M 814.347656 475.148438 " fill-opacity="0.14" fill-rule="nonzero"/></svg>