<svg xmlns="http://www.w3.org/2000/svg" viewBox="0 0 500 500"><g id="freepik--Floor--inject-68"><g id="freepik--Field--inject-68"><ellipse id="freepik--floor--inject-68" cx="250" cy="331.36" rx="235.61" ry="136.03" style="fill:#44A642"></ellipse><path d="M83.4,427.55c1.66,1,3.35,1.9,5,2.82L421.5,238.09c-1.61-1-3.23-2-4.9-2.92-1.05-.6-2.12-1.2-3.19-1.79L80.29,425.7C81.32,426.32,82.35,426.94,83.4,427.55Z" style="fill:#fafafa"></path></g></g><g id="freepik--Net--inject-68"><g id="freepik--Goal--inject-68"><path d="M60,345.16a.51.51,0,0,1-.44-.25.5.5,0,0,1,.19-.68L287.19,212.89a.5.5,0,0,1,.68.19.49.49,0,0,1-.18.68L60.22,345.09A.47.47,0,0,1,60,345.16Z" style="fill:#fafafa"></path><path d="M63.15,329.8a.5.5,0,0,1-.25-.93L290.37,197.54a.51.51,0,0,1,.69.18.5.5,0,0,1-.19.68L63.4,329.73A.47.47,0,0,1,63.15,329.8Z" style="fill:#fafafa"></path><path d="M66.33,314.44a.5.5,0,0,1-.25-.93L293.56,182.18a.5.5,0,1,1,.5.86L66.58,314.38A.54.54,0,0,1,66.33,314.44Z" style="fill:#fafafa"></path><path d="M69.51,299.08a.5.5,0,0,1-.25-.93L296.74,166.82a.5.5,0,1,1,.5.86L69.76,299A.54.54,0,0,1,69.51,299.08Z" style="fill:#fafafa"></path><path d="M72.7,283.72a.49.49,0,0,1-.44-.25.5.5,0,0,1,.19-.68L299.92,151.46a.5.5,0,1,1,.5.86L73,283.66A.57.57,0,0,1,72.7,283.72Z" style="fill:#fafafa"></path><path d="M75.88,268.37a.5.5,0,0,1-.43-.25.51.51,0,0,1,.18-.69L303.1,136.1a.5.5,0,1,1,.5.87L76.13,268.3A.59.59,0,0,1,75.88,268.37Z" style="fill:#fafafa"></path><path d="M79.06,253a.5.5,0,0,1-.43-.25.51.51,0,0,1,.18-.69L306.29,120.74a.49.49,0,0,1,.68.18.51.51,0,0,1-.18.69L79.31,252.94A.45.45,0,0,1,79.06,253Z" style="fill:#fafafa"></path><path d="M82.24,237.65a.5.5,0,0,1-.43-.25.51.51,0,0,1,.18-.69L309.47,105.38a.5.5,0,0,1,.5.87L82.49,237.58A.45.45,0,0,1,82.24,237.65Z" style="fill:#fafafa"></path><path d="M270.32,227.39h-.11a.49.49,0,0,1-.38-.59L294.2,109.53a.5.5,0,0,1,1,.2L270.81,227A.5.5,0,0,1,270.32,227.39Z" style="fill:#fafafa"></path><path d="M258.13,234.43H258a.5.5,0,0,1-.39-.59L282,116.57a.51.51,0,0,1,.59-.39.5.5,0,0,1,.39.59L258.62,234A.5.5,0,0,1,258.13,234.43Z" style="fill:#fafafa"></path><path d="M245.94,241.47h-.1a.52.52,0,0,1-.39-.6L269.83,123.6a.5.5,0,0,1,.59-.39.52.52,0,0,1,.39.6L246.43,241.07A.5.5,0,0,1,245.94,241.47Z" style="fill:#fafafa"></path><path d="M233.76,248.5h-.1a.5.5,0,0,1-.39-.59l24.37-117.26a.51.51,0,0,1,.59-.39.5.5,0,0,1,.39.59L234.25,248.1A.5.5,0,0,1,233.76,248.5Z" style="fill:#fafafa"></path><path d="M221.57,255.54h-.1a.51.51,0,0,1-.39-.59l24.37-117.27a.5.5,0,0,1,.6-.38.49.49,0,0,1,.38.59L222.06,255.14A.51.51,0,0,1,221.57,255.54Z" style="fill:#fafafa"></path><path d="M209.39,262.57h-.11a.49.49,0,0,1-.38-.59l24.37-117.26a.5.5,0,0,1,.59-.39.51.51,0,0,1,.39.59L209.88,262.17A.5.5,0,0,1,209.39,262.57Z" style="fill:#fafafa"></path><path d="M197.2,269.61h-.1a.5.5,0,0,1-.39-.59l24.37-117.26a.5.5,0,1,1,1,.2L197.69,269.21A.5.5,0,0,1,197.2,269.61Z" style="fill:#fafafa"></path><path d="M185,276.64h-.1a.5.5,0,0,1-.39-.59L208.9,158.78a.5.5,0,0,1,.59-.39.51.51,0,0,1,.39.59L185.5,276.24A.49.49,0,0,1,185,276.64Z" style="fill:#fafafa"></path><path d="M172.83,283.68h-.1a.5.5,0,0,1-.39-.59l24.37-117.26a.5.5,0,0,1,1,.2L173.32,283.28A.5.5,0,0,1,172.83,283.68Z" style="fill:#fafafa"></path><path d="M160.64,290.71h-.1a.5.5,0,0,1-.39-.59l24.37-117.26a.52.52,0,0,1,.6-.39.49.49,0,0,1,.38.59L161.13,290.32A.49.49,0,0,1,160.64,290.71Z" style="fill:#fafafa"></path><path d="M148.46,297.75h-.11a.49.49,0,0,1-.38-.59l24.37-117.26a.49.49,0,0,1,.59-.39.51.51,0,0,1,.39.59L149,297.35A.5.5,0,0,1,148.46,297.75Z" style="fill:#fafafa"></path><path d="M136.27,304.79l-.1,0a.49.49,0,0,1-.39-.59l24.37-117.26a.5.5,0,1,1,1,.21L136.76,304.39A.51.51,0,0,1,136.27,304.79Z" style="fill:#fafafa"></path><path d="M136.27,253.19h-.1a.5.5,0,0,1-.39-.59L148,194a.5.5,0,0,1,.59-.39.51.51,0,0,1,.39.59l-12.19,58.63A.5.5,0,0,1,136.27,253.19Z" style="fill:#fafafa"></path><path d="M305,228.63h0a.5.5,0,0,1-.44-.55l20-182.63A.51.51,0,0,1,325,45a.5.5,0,0,1,.44.55l-20,182.63A.5.5,0,0,1,305,228.63Z" style="fill:#fafafa"></path><path d="M319.06,236.77h0a.5.5,0,0,1-.46-.54l15-186.87a.5.5,0,0,1,.54-.46.5.5,0,0,1,.46.54l-15,186.87A.49.49,0,0,1,319.06,236.77Z" style="fill:#fafafa"></path><path d="M333,244.54h0a.5.5,0,0,1-.47-.53L342.58,53.53a.5.5,0,0,1,.52-.48.51.51,0,0,1,.48.53L333.49,244.07A.49.49,0,0,1,333,244.54Z" style="fill:#fafafa"></path><path d="M347.5,253.19h0a.49.49,0,0,1-.48-.51l4.63-195a.5.5,0,0,1,.51-.49.52.52,0,0,1,.49.51L348,252.7A.5.5,0,0,1,347.5,253.19Z" style="fill:#fafafa"></path><path d="M361.17,260.89a.5.5,0,0,1-.5-.5V61.87a.5.5,0,0,1,.5-.5.5.5,0,0,1,.5.5V260.39A.5.5,0,0,1,361.17,260.89Z" style="fill:#fafafa"></path><path d="M361.17,256.4a.47.47,0,0,1-.25-.07l-73.73-42.57a.49.49,0,0,1-.18-.68.51.51,0,0,1,.68-.19l73.73,42.57a.5.5,0,0,1-.25.94Z" style="fill:#fafafa"></path><path d="M361.17,238.76a.42.42,0,0,1-.24-.07L290.38,198.4a.49.49,0,0,1-.19-.68.51.51,0,0,1,.68-.19l70.55,40.29a.51.51,0,0,1,.19.69A.5.5,0,0,1,361.17,238.76Z" style="fill:#fafafa"></path><path d="M361.17,221.12a.44.44,0,0,1-.24-.07l-67.37-38a.5.5,0,1,1,.49-.87l67.37,38a.5.5,0,0,1,.19.68A.49.49,0,0,1,361.17,221.12Z" style="fill:#fafafa"></path><path d="M361.17,203.48a.53.53,0,0,1-.24-.06l-64.18-35.73a.5.5,0,1,1,.48-.88l64.19,35.73a.5.5,0,0,1,.19.68A.49.49,0,0,1,361.17,203.48Z" style="fill:#fafafa"></path><path d="M361.17,185.84a.53.53,0,0,1-.24-.06l-61-33.45a.5.5,0,1,1,.48-.88l61,33.45a.5.5,0,0,1-.24.94Z" style="fill:#fafafa"></path><path d="M361.17,168.2a.46.46,0,0,1-.23-.06L303.12,137a.49.49,0,0,1-.21-.67.5.5,0,0,1,.68-.21l57.82,31.17a.5.5,0,0,1,.2.68A.49.49,0,0,1,361.17,168.2Z" style="fill:#fafafa"></path><path d="M361.17,150.56a.46.46,0,0,1-.23-.06L306.3,121.62a.52.52,0,0,1-.21-.68.51.51,0,0,1,.68-.21l54.64,28.89a.5.5,0,0,1-.24.94Z" style="fill:#fafafa"></path><path d="M361.17,132.92a.68.68,0,0,1-.23,0l-51.45-26.61a.5.5,0,0,1-.22-.67.51.51,0,0,1,.68-.22L361.4,132a.49.49,0,0,1,.22.67A.51.51,0,0,1,361.17,132.92Z" style="fill:#fafafa"></path><path d="M361.17,115.28a.44.44,0,0,1-.22,0L312.68,90.9a.49.49,0,0,1-.22-.67.5.5,0,0,1,.67-.22l48.27,24.33a.5.5,0,0,1,.22.67A.5.5,0,0,1,361.17,115.28Z" style="fill:#fafafa"></path><path d="M361.17,97.64a.44.44,0,0,1-.22,0l-45.09-22a.51.51,0,0,1-.23-.67.51.51,0,0,1,.67-.23l45.09,22a.49.49,0,0,1,.23.66A.48.48,0,0,1,361.17,97.64Z" style="fill:#fafafa"></path><path d="M361.17,80A.54.54,0,0,1,361,80L319.05,60.19a.51.51,0,0,1-.24-.67.5.5,0,0,1,.67-.23l41.91,19.76a.5.5,0,0,1-.22,1Z" style="fill:#fafafa"></path><path d="M361.17,62.37a.49.49,0,0,1-.2,0L322.24,44.84a.51.51,0,1,1,.42-.92l38.72,17.49a.5.5,0,0,1-.21,1Z" style="fill:#fafafa"></path><path d="M363.75,66a3.27,3.27,0,0,0-4.91-2.83l-.62.36h0L133,193.57a2,2,0,0,0-.84,1.86V390.06h0a2,2,0,0,0,1.19,1.66,6.31,6.31,0,0,0,5.74,0,2,2,0,0,0,1.19-1.66V198.74L355.62,74.45V261.09a2,2,0,0,0,1.19,1.66,6.33,6.33,0,0,0,5.75,0,2,2,0,0,0,1.19-1.66V66Z" style="fill:#44A642"></path><path d="M139.49,193.56,99.08,175.09h0A3.11,3.11,0,0,0,94.76,177L59.32,347.79a1.64,1.64,0,0,0,0,.23,1.83,1.83,0,0,0,.93,1.46,2.57,2.57,0,0,0,.37.21,6,6,0,0,0,2.76.62c2.08,0,3.8-.89,4-2,0,0,0,0,0,0L101.35,185l34.08,15.58Z" style="fill:#44A642"></path><path d="M361.79,63.06,323.43,45.53h0a3.11,3.11,0,0,0-4.32,1.93L283.67,218.22a1.64,1.64,0,0,0,0,.23,1.83,1.83,0,0,0,.93,1.46,2.57,2.57,0,0,0,.37.21,6,6,0,0,0,2.76.62c2.08,0,3.8-.89,4-2,0,0,0,0,0,0L325.7,55.46,359.78,71Z" style="fill:#44A642"></path><path d="M361.62,63,323.43,45.53h0a3.11,3.11,0,0,0-4.32,1.93l-9.13,44L135.9,191.92,99.08,175.09h0A3.11,3.11,0,0,0,94.76,177L59.32,347.79a1.64,1.64,0,0,0,0,.23,1.83,1.83,0,0,0,.93,1.46,2.57,2.57,0,0,0,.37.21,6,6,0,0,0,2.76.62c2.08,0,3.8-.89,4-2,0,0,0,0,0,0L101.35,185l30.85,14.1V390.06h0a2,2,0,0,0,1.19,1.66,6.31,6.31,0,0,0,5.74,0,2,2,0,0,0,1.19-1.66V198.74l167.45-96.66-24.1,116.14a1.64,1.64,0,0,0,0,.23,1.83,1.83,0,0,0,.93,1.46,2.57,2.57,0,0,0,.37.21,6,6,0,0,0,2.76.62c2.08,0,3.8-.89,4-2,0,0,0,0,0,0l25.37-122,38.5-22.23V261.09a2,2,0,0,0,1.19,1.66,6.33,6.33,0,0,0,5.75,0,2,2,0,0,0,1.19-1.66V66h0A3.24,3.24,0,0,0,361.62,63ZM325.7,55.46l26,11.88L319.34,86Z" style="fill:#fff;opacity:0.8"></path><polygon points="101.35 185.02 96.02 182.58 100.97 186.86 101.35 185.02" style="opacity:0.1"></polygon><polygon points="325.7 55.46 320.36 53.02 325.32 57.3 325.7 55.46" style="opacity:0.1"></polygon><path d="M97.48,177.34h-.06a.5.5,0,0,1-.44-.55l.06-.52.21-.13L323.76,45.36a.52.52,0,0,1,.69.19.51.51,0,0,1-.19.68L98,176.88v0A.5.5,0,0,1,97.48,177.34Z" style="fill:#fafafa"></path><path d="M106.55,181.23a.5.5,0,0,1-.25-.93L332.81,49.52a.49.49,0,0,1,.68.18.51.51,0,0,1-.18.69L106.8,181.16A.45.45,0,0,1,106.55,181.23Z" style="fill:#fafafa"></path><path d="M115.6,185.39a.5.5,0,0,1-.43-.25.51.51,0,0,1,.18-.69L341.86,53.68a.5.5,0,1,1,.5.86L115.85,185.32A.55.55,0,0,1,115.6,185.39Z" style="fill:#fafafa"></path><path d="M124.65,189.54a.5.5,0,0,1-.25-.93L350.91,57.84a.5.5,0,0,1,.5.86L124.9,189.48A.54.54,0,0,1,124.65,189.54Z" style="fill:#fafafa"></path><path d="M133.7,193.7a.5.5,0,0,1-.25-.93L360,62a.49.49,0,0,1,.68.19.5.5,0,0,1-.18.68L134,193.63A.47.47,0,0,1,133.7,193.7Z" style="fill:#fafafa"></path><path d="M347.49,70.26a.51.51,0,0,1-.2,0L310.73,53.8a.5.5,0,0,1,.41-.91L347.7,69.31a.5.5,0,0,1-.21,1Z" style="fill:#fafafa"></path><path d="M335.31,77.3a.52.52,0,0,1-.21,0L298.54,60.84a.5.5,0,1,1,.42-.91l36.55,16.41a.5.5,0,0,1,.25.66A.49.49,0,0,1,335.31,77.3Z" style="fill:#fafafa"></path><path d="M323.12,84.34a.46.46,0,0,1-.2,0L286.36,67.88a.5.5,0,0,1,.41-.92l36.56,16.42a.5.5,0,0,1,.25.66A.51.51,0,0,1,323.12,84.34Z" style="fill:#fafafa"></path><path d="M310.94,91.37a.52.52,0,0,1-.21,0L274.17,74.91a.5.5,0,0,1,.41-.91l36.56,16.42a.5.5,0,0,1,.25.66A.49.49,0,0,1,310.94,91.37Z" style="fill:#fafafa"></path><path d="M298.75,98.41a.54.54,0,0,1-.21,0L262,82a.49.49,0,0,1-.25-.66.49.49,0,0,1,.66-.26L299,97.45a.5.5,0,0,1,.26.66A.51.51,0,0,1,298.75,98.41Z" style="fill:#fafafa"></path><path d="M286.56,105.44a.45.45,0,0,1-.2,0L249.8,89a.5.5,0,1,1,.41-.91l36.56,16.42a.5.5,0,0,1-.21,1Z" style="fill:#fafafa"></path><path d="M274.38,112.48a.52.52,0,0,1-.21,0L237.61,96a.5.5,0,0,1-.25-.66.5.5,0,0,1,.66-.25l36.56,16.41a.5.5,0,0,1,.25.66A.49.49,0,0,1,274.38,112.48Z" style="fill:#fafafa"></path><path d="M262.19,119.52a.46.46,0,0,1-.2,0l-36.56-16.42a.49.49,0,0,1-.25-.66.5.5,0,0,1,.66-.25l36.56,16.42a.5.5,0,0,1,.25.66A.51.51,0,0,1,262.19,119.52Z" style="fill:#fafafa"></path><path d="M250,126.55a.51.51,0,0,1-.2,0l-36.56-16.42a.5.5,0,0,1,.41-.91l36.56,16.41a.51.51,0,0,1,.25.67A.51.51,0,0,1,250,126.55Z" style="fill:#fafafa"></path><path d="M237.82,133.59a.54.54,0,0,1-.21-.05l-36.55-16.41a.5.5,0,0,1-.26-.66.51.51,0,0,1,.67-.26L238,132.63a.49.49,0,0,1,.25.66A.49.49,0,0,1,237.82,133.59Z" style="fill:#fafafa"></path><path d="M225.63,140.62a.45.45,0,0,1-.2,0l-36.56-16.42a.5.5,0,0,1,.41-.91l36.56,16.42a.5.5,0,0,1-.21,1Z" style="fill:#fafafa"></path><path d="M213.45,147.66a.54.54,0,0,1-.21,0L176.68,131.2a.51.51,0,0,1-.25-.66.49.49,0,0,1,.66-.25l36.56,16.41a.5.5,0,0,1,.25.66A.49.49,0,0,1,213.45,147.66Z" style="fill:#fafafa"></path><path d="M201.26,154.69a.45.45,0,0,1-.2,0L164.5,138.23a.49.49,0,0,1-.25-.66.5.5,0,0,1,.66-.25l36.55,16.42a.5.5,0,0,1,.26.66A.52.52,0,0,1,201.26,154.69Z" style="fill:#fafafa"></path><path d="M189.07,161.73a.48.48,0,0,1-.2,0l-36.56-16.42a.5.5,0,0,1-.25-.66.49.49,0,0,1,.66-.25l36.56,16.41a.51.51,0,0,1,.25.66A.5.5,0,0,1,189.07,161.73Z" style="fill:#fafafa"></path><path d="M176.89,168.77a.54.54,0,0,1-.21-.05L140.13,152.3a.49.49,0,0,1-.26-.66.51.51,0,0,1,.66-.25l36.56,16.42a.49.49,0,0,1,.25.66A.49.49,0,0,1,176.89,168.77Z" style="fill:#fafafa"></path><path d="M164.7,175.8a.45.45,0,0,1-.2,0l-36.56-16.42a.49.49,0,0,1-.25-.66.5.5,0,0,1,.66-.25l36.56,16.42a.5.5,0,0,1,.25.66A.52.52,0,0,1,164.7,175.8Z" style="fill:#fafafa"></path><path d="M152.51,182.84a.53.53,0,0,1-.2-.05l-36.56-16.41a.51.51,0,0,1-.25-.66.5.5,0,0,1,.66-.26l36.56,16.42a.5.5,0,0,1,.25.66A.49.49,0,0,1,152.51,182.84Z" style="fill:#fafafa"></path><path d="M140.33,189.87a.52.52,0,0,1-.21,0l-36.55-16.42a.49.49,0,0,1-.25-.66.5.5,0,0,1,.66-.25l36.55,16.42a.5.5,0,0,1,.26.66A.52.52,0,0,1,140.33,189.87Z" style="fill:#fafafa"></path><path d="M77.49,360h-.06a.5.5,0,0,1-.44-.55L97,176.79a.49.49,0,0,1,.55-.44.5.5,0,0,1,.44.55L78,359.52A.49.49,0,0,1,77.49,360Z" style="fill:#fafafa"></path><path d="M91.59,368.11h0a.51.51,0,0,1-.46-.54l15-186.88a.5.5,0,0,1,.54-.46.5.5,0,0,1,.46.54l-15,186.88A.51.51,0,0,1,91.59,368.11Z" style="fill:#fafafa"></path><path d="M105.52,375.87h0a.5.5,0,0,1-.47-.52L115.1,184.86a.5.5,0,0,1,1,0L106,375.4A.5.5,0,0,1,105.52,375.87Z" style="fill:#fafafa"></path><path d="M120,384.52h0a.49.49,0,0,1-.49-.51l4.63-195a.5.5,0,0,1,.51-.49.5.5,0,0,1,.49.51l-4.63,195A.5.5,0,0,1,120,384.52Z" style="fill:#fafafa"></path><path d="M133.7,392.22a.5.5,0,0,1-.5-.5V193.2a.5.5,0,0,1,1,0V391.72A.5.5,0,0,1,133.7,392.22Z" style="fill:#fafafa"></path><path d="M133.7,370.09a.45.45,0,0,1-.25-.07L62.9,329.74a.52.52,0,0,1-.19-.69.51.51,0,0,1,.69-.18L134,369.16a.5.5,0,0,1-.25.93Z" style="fill:#fafafa"></path><path d="M133.7,352.45a.54.54,0,0,1-.25-.06l-67.36-38a.5.5,0,0,1,.49-.87l67.36,38a.5.5,0,0,1-.24.93Z" style="fill:#fafafa"></path><path d="M133.7,334.81a.5.5,0,0,1-.24-.06L69.27,299a.5.5,0,0,1,.49-.87l64.18,35.73a.5.5,0,0,1,.2.68A.52.52,0,0,1,133.7,334.81Z" style="fill:#fafafa"></path><path d="M133.7,317.17a.5.5,0,0,1-.24-.06l-61-33.45a.49.49,0,0,1-.2-.68.49.49,0,0,1,.68-.19l61,33.44a.51.51,0,0,1,.2.68A.5.5,0,0,1,133.7,317.17Z" style="fill:#fafafa"></path><path d="M133.7,299.53a.43.43,0,0,1-.24-.06L75.64,268.31a.51.51,0,0,1-.2-.68.5.5,0,0,1,.68-.2l57.82,31.16a.51.51,0,0,1,.2.68A.49.49,0,0,1,133.7,299.53Z" style="fill:#fafafa"></path><path d="M133.7,281.9a.53.53,0,0,1-.24-.06L78.83,253a.5.5,0,0,1-.21-.68.51.51,0,0,1,.67-.21L133.93,281a.5.5,0,0,1-.23.95Z" style="fill:#fafafa"></path><path d="M133.7,264.26a.46.46,0,0,1-.23-.06L82,237.59a.5.5,0,0,1-.21-.67.5.5,0,0,1,.67-.22l51.46,26.61a.51.51,0,0,1,.21.68A.5.5,0,0,1,133.7,264.26Z" style="fill:#fafafa"></path><path d="M133.7,246.62a.49.49,0,0,1-.23-.06L85.2,222.24a.5.5,0,0,1,.45-.9l48.27,24.33a.5.5,0,0,1-.22,1Z" style="fill:#fafafa"></path><path d="M133.7,229a.54.54,0,0,1-.22,0L88.39,206.88a.5.5,0,0,1,.44-.9L133.92,228a.5.5,0,0,1-.22.95Z" style="fill:#fafafa"></path><path d="M133.7,387.73a.45.45,0,0,1-.25-.07L59.72,345.09a.49.49,0,0,1-.19-.68.51.51,0,0,1,.69-.18L134,386.8a.5.5,0,0,1-.25.93Z" style="fill:#fafafa"></path><path d="M59.32,348.29h-.1a.5.5,0,0,1-.39-.59L92.35,186.86c.8-3.6,1.2-3.86,1.14-3.59L59.81,347.89A.51.51,0,0,1,59.32,348.29Z" style="fill:#fafafa"></path><path d="M133.7,211.34a.5.5,0,0,1-.21-.05L91.58,191.52a.5.5,0,0,1,.42-.9l41.91,19.77a.5.5,0,0,1-.21,1Z" style="fill:#fafafa"></path><path d="M133.7,193.7a.52.52,0,0,1-.21,0L94.77,176.17a.5.5,0,0,1,.41-.91l38.72,17.48a.5.5,0,0,1-.2,1Z" style="fill:#fafafa"></path></g></g><g id="freepik--Ball--inject-68"><g id="freepik--soccer-ball--inject-68"><circle cx="317.45" cy="139.76" r="17.21" transform="translate(-5.85 265.4) rotate(-45)" style="fill:#f5f5f5"></circle><path d="M320.46,131.38a18.43,18.43,0,0,0-6.92,2,37.24,37.24,0,0,0,0,7,23.11,23.11,0,0,0,6.2,2.13s3.29-2.73,4.19-5.2A14.25,14.25,0,0,0,320.46,131.38Z" style="fill:#455a64"></path><path d="M308.93,130.4l-.49-1-.09.13a.76.76,0,0,0-.08.11l.46.91,4.73,2.85.51.38a.53.53,0,0,1,.06-.1l.11-.11-.54-.39Z" style="fill:#455a64"></path><path d="M318.76,123.75c-.4,0-.83-.09-1.3-.13a11.67,11.67,0,0,0-7.13,1.84l-1,.56a.87.87,0,0,1,.1.25l1-.59a11.34,11.34,0,0,1,7-1.79c.6,0,1.14.1,1.61.17A.86.86,0,0,1,318.76,123.75Z" style="fill:#455a64"></path><path d="M322.12,126l-.22.75-1.56,4.57-.37,1a1.29,1.29,0,0,1,.26.08l.36-.95,1.56-4.57.23-.77A1.25,1.25,0,0,1,322.12,126Z" style="fill:#455a64"></path><path d="M330.42,137.37a4.11,4.11,0,0,1-.55.4,52.84,52.84,0,0,0-5.93-.68h-.1a2.19,2.19,0,0,0-.36,0,1.22,1.22,0,0,1,0,.27,2.15,2.15,0,0,1,.45,0,56.49,56.49,0,0,1,5.94.69h.05l.05,0s.22-.14.52-.39A1.34,1.34,0,0,1,330.42,137.37Z" style="fill:#455a64"></path><path d="M327.93,127.81a13.36,13.36,0,0,1,3.83,5.5,3.72,3.72,0,0,1,.13.63,1.14,1.14,0,0,1,.26-.09,5,5,0,0,0-.14-.62,13.61,13.61,0,0,0-3.89-5.61l-.33-.32a7.79,7.79,0,0,0-.65-.57.34.34,0,0,1-.06.12l-.1.09a7.44,7.44,0,0,1,.62.55Z" style="fill:#455a64"></path><path d="M319.87,142.43c0-.11.14-.47.32-.94a.84.84,0,0,1-.33.1c-.15.44-.24.75-.25.8v0l1.69,6.41,0,0s.59.43,1.22.84l.06,0,.29-.07c-.51-.33-1-.68-1.38-.93Z" style="fill:#455a64"></path><path d="M331.79,143.29a9.28,9.28,0,0,1-.43,1,16.81,16.81,0,0,1-4.18,5.22c-.25.13-.67.34-1.12.54a.8.8,0,0,1,.21.2c.51-.23,1-.46,1.05-.52a16.85,16.85,0,0,0,4.29-5.32c.14-.32.28-.62.4-.92Z" style="fill:#455a64"></path><path d="M314.28,139.71c-.24.13-.51.28-.81.47a38.61,38.61,0,0,0-5.11,4.08l0,0c-.06.11-.28.49-.52,1l.18.24c.2-.44.41-.82.56-1.08a38.54,38.54,0,0,1,5.05-4c.33-.2.62-.36.88-.5A1.8,1.8,0,0,1,314.28,139.71Z" style="fill:#455a64"></path><path d="M318.07,152.55l-1.54-.09a12.33,12.33,0,0,1-6.34-2.33l0,0h0s-.36-.09-.83-.25a2.45,2.45,0,0,1,0,.27c.37.13.67.21.76.23a12.56,12.56,0,0,0,6.46,2.38c.53,0,1,.06,1.44.08A.76.76,0,0,1,318.07,152.55Z" style="fill:#455a64"></path><path d="M303.46,142.17a.5.5,0,0,1,.27,0,7.15,7.15,0,0,1-.19-.92,26.53,26.53,0,0,1,.33-6.78,11.26,11.26,0,0,1,.3-1.21l-.19,0h-.09c-.11.37-.2.75-.28,1.15a26.31,26.31,0,0,0-.33,6.87A7.17,7.17,0,0,0,303.46,142.17Z" style="fill:#455a64"></path><path d="M317.45,123.75a13.62,13.62,0,0,1,4.57,3.07,16.43,16.43,0,0,1,5.67.57,10.18,10.18,0,0,0-.3-1.67,17.16,17.16,0,0,0-8.54-3.11A13.82,13.82,0,0,0,317.45,123.75Z" style="fill:#455a64"></path><path d="M334.14,135.56a13.45,13.45,0,0,0-2.26-2.29,23.6,23.6,0,0,1-2,4.64,45.32,45.32,0,0,1,1.59,6.43,15.68,15.68,0,0,0,2.75-.82,17.26,17.26,0,0,0,.42-3.76A17.08,17.08,0,0,0,334.14,135.56Z" style="fill:#455a64"></path><path d="M306,151.39a11,11,0,0,0,4.1-1.16s-.87-2.61-1.65-5.87a33.42,33.42,0,0,1-5-3.11s-1.08,1.12-1.33,4.68A17.6,17.6,0,0,0,306,151.39Z" style="fill:#455a64"></path><path d="M302.37,131.45a6.89,6.89,0,0,0,1.37,3,11.92,11.92,0,0,1,5.09-3.93,34.65,34.65,0,0,1,1.57-4.93,16.08,16.08,0,0,0-2.56-.09A17.31,17.31,0,0,0,302.37,131.45Z" style="fill:#455a64"></path><path d="M327.24,149.62a25.27,25.27,0,0,1-5.83-.87,30.6,30.6,0,0,1-4.89,3.85,9.79,9.79,0,0,0,2.74,3.41,19.15,19.15,0,0,0,6.35-1.83A13,13,0,0,0,327.24,149.62Z" style="fill:#455a64"></path><path d="M332.26,148.52c-2.88,4.08-14,6.66-21.06-2.53s-3-19.74,2.16-23a17.21,17.21,0,1,0,18.9,25.48Z" style="opacity:0.1"></path></g></g><g id="freepik--Character--inject-68"><g id="freepik--character--inject-68"><path d="M264,281.41c-1.17,1.91-.55,5.19,4.41,9.07s33.6,20,42.11,5.34S277,274.13,277,274.13,271.23,274.84,264,281.41Z" style="fill:#e0e0e0"></path><path d="M309.51,296.23c-.55,3.31-2.43,10-7,28.73-4.68,19-5.84,20.92-11.08,24.66-5,3.55-27.88,20.1-33.38,24.62-5.09,2-7.79.12-7.89-5.9,0,0,4.78-6.86,10.65-14.6,5.76-7.58,9.45-11.5,19.09-15.07l5.29-46.5Z" style="fill:#ffa8a7"></path><path d="M264.55,332.53a57.47,57.47,0,0,1-8.33,9.05c-12,11.14-20,19.36-28.78,28.11-2.36,2.36-4.72,4.74-7.05,7.13-.62.63-1.58,2.08-2.41,2.33-1.44.44-3.17-1.26-3.75-2.37a9.6,9.6,0,0,1-.78-4.9,31,31,0,0,1,.42-3.86c.25-1.47,2-2.89,2.9-4,0,0,.71-.86,1.53-1.95C222,357,226,348.35,231.81,339.2c4.41-6.89,9.52-9.32,13.83-12.13,0,0,13.66-32,24-46.28l25.43,8.86S266.89,329.42,264.55,332.53Z" style="fill:#ffa8a7"></path><path d="M248,367.48c-.64.34-1.84,1.1-2,1.73a36.16,36.16,0,0,1-1.62,7.39c-1.09,2.85-4.6,7.65-3.52,12.6.94,4.35,2.79,6.07,4.55,7.25a5.3,5.3,0,0,0,4.83.84s2.39-.8,2.13-2.32S248,367.48,248,367.48Z" style="fill:#37474f"></path><path d="M247.71,367.65c.28-.69,1.32-1.21,1.88-1.65a15.74,15.74,0,0,0,2.27-1.88c.24-.28.51-.63.77-.89s.54-.62.91-.57l.53.19a3.52,3.52,0,0,0-.26.38,7.23,7.23,0,0,0-.31,1.72c0,.58.2,1.15.17,1.73-.08,1.47-1.26,2.6-.81,4.14.68-1.42,1.45-3.06,2.4-2.63.63.28,1.41,1.64,2.63,2.39s2.36.92,2.78,1.32-.14.93-1.1,2.28a26.29,26.29,0,0,0-2.9,4.84c-.48,1.42-.94,2.9-1.33,4.35-1.46,5.56-.72,9.06-2.35,11.69s-6.73,1.78-9-2.16c-3.79-6.72-.77-10.55.69-13.71a22.59,22.59,0,0,0,2.07-6.39C247.1,370.71,247,369.5,247.71,367.65Z" style="fill:#44A642"></path><path d="M247.71,367.65c.28-.69,1.32-1.21,1.88-1.65a15.74,15.74,0,0,0,2.27-1.88c.24-.28.51-.63.77-.89s.54-.62.91-.57l.53.19a3.52,3.52,0,0,0-.26.38,7.23,7.23,0,0,0-.31,1.72c0,.58.2,1.15.17,1.73-.08,1.47-1.26,2.6-.81,4.14.68-1.42,1.45-3.06,2.4-2.63.63.28,1.41,1.64,2.63,2.39s2.36.92,2.78,1.32-.14.93-1.1,2.28a26.29,26.29,0,0,0-2.9,4.84c-.48,1.42-.94,2.9-1.33,4.35-1.46,5.56-.72,9.06-2.35,11.69s-6.73,1.78-9-2.16c-3.79-6.72-.77-10.55.69-13.71a22.59,22.59,0,0,0,2.07-6.39C247.1,370.71,247,369.5,247.71,367.65Z" style="opacity:0.4"></path><path d="M252.81,370.55c-.24-1.4.79-2.49.86-3.87,0-.58-.15-1.15-.17-1.73a7.23,7.23,0,0,1,.31-1.72,3.52,3.52,0,0,1,.26-.38l-.53-.19c-.37-.05-.65.31-.91.57-.1.1-.2.22-.3.34a.71.71,0,0,0-.08.15,3.9,3.9,0,0,0-.19.9c-.12.82-.2,1.65-.26,2.48,0,.41-.06.81-.07,1.22a5.63,5.63,0,0,1-.1.92c-.13.59-.49,1.08-.65,1.66a13.4,13.4,0,0,1-.65,1.84c-1.16,2.6-2.42,4.48-3.2,8.09s0,4.32.87,4.18.6-1.25,1.22-4.44c.64-3.35,2.63-6.46,3.64-9.75A2.56,2.56,0,0,1,252.81,370.55Z" style="opacity:0.15"></path><path d="M245.05,387.22c1.3,1.74,2.44,2,3.14.23a9.1,9.1,0,0,0,.44-3.89l4.43,2.13s-1.62,3-1,4.13c.37.7,1.46.31,2.3-.41-.24,2.32-.39,4.13-1.33,5.65-1.7,2.73-6.73,1.78-9-2.16-3.17-5.63-1.57-9.23-.11-12.11C243.09,382.56,243.75,385.47,245.05,387.22Z" style="opacity:0.15"></path><path d="M259.47,374.33a28.34,28.34,0,0,0-2.8,4.69c-.48,1.42-.94,2.9-1.33,4.35-.25.95-.43,1.84-.57,2.67a2.74,2.74,0,0,1-.92,1c-.8.26-1,.1-.79-1.35.28-1.64,3.74-9.77,6.41-11.36Z" style="opacity:0.15"></path><path d="M254.06,386.55a.47.47,0,0,1-.54,0,22.91,22.91,0,0,0-6-2.66.46.46,0,0,1-.33-.55.47.47,0,0,1,.56-.33,23.42,23.42,0,0,1,6.23,2.78.45.45,0,0,1,.13.63Z" style="fill:#e0e0e0"></path><path d="M254.82,384.33a.45.45,0,0,1-.6,0,11,11,0,0,0-6.14-2.73.46.46,0,0,1,.06-.91,11.81,11.81,0,0,1,6.7,3,.46.46,0,0,1,0,.64Z" style="fill:#e0e0e0"></path><path d="M255.72,382.31a.44.44,0,0,1-.63-.05,10.56,10.56,0,0,0-6.25-3.19.47.47,0,0,1-.41-.5.46.46,0,0,1,.5-.41,11.38,11.38,0,0,1,6.84,3.5.45.45,0,0,1,0,.64Z" style="fill:#e0e0e0"></path><path d="M256.67,380.18h0a.46.46,0,0,1-.64-.09,9.78,9.78,0,0,0-6.14-3.37.45.45,0,0,1-.41-.49.46.46,0,0,1,.5-.41,10.46,10.46,0,0,1,6.78,3.72A.47.47,0,0,1,256.67,380.18Z" style="fill:#e0e0e0"></path><path d="M257.62,377.88l0,0a.45.45,0,0,1-.63-.12c-2-3-6.2-3.43-6.24-3.44a.47.47,0,0,1-.41-.5.46.46,0,0,1,.51-.4c.18,0,4.62.52,6.89,3.82A.46.46,0,0,1,257.62,377.88Z" style="fill:#e0e0e0"></path><path d="M258.61,376l0,0a.45.45,0,0,1-.63-.12,9.11,9.11,0,0,0-6.15-3.38.46.46,0,0,1-.44-.47.47.47,0,0,1,.47-.45,10.07,10.07,0,0,1,6.87,3.78A.46.46,0,0,1,258.61,376Z" style="fill:#e0e0e0"></path><path d="M211.45,367.25c-.68.25-2,.85-2.22,1.46a36,36,0,0,1-2.55,7.12c-1.43,2.69-5.53,7-5.09,12.06.39,4.43,2,6.37,3.6,7.77a5.3,5.3,0,0,0,4.68,1.44s2.48-.49,2.41-2S211.45,367.25,211.45,367.25Z" style="fill:#37474f"></path><path d="M211.09,367.35a3.43,3.43,0,0,1,1.13-1.28,14.59,14.59,0,0,0,1.67-1.1c.55-.49.92-1.15,1.47-1.64a1.77,1.77,0,0,1,2-.38.81.81,0,0,1,.12.14l-.27.34a3.5,3.5,0,0,0-.56,1.78c-.09.68-.09,1.36-.15,2.05a12.46,12.46,0,0,1-.36,2.1c-.09.31-.23.63-.3.95s.07.74,0,.86c.86-1.31,1.83-2.84,2.72-2.3.58.36,1.19,1.81,2.3,2.71s2.22,1.21,2.59,1.66-.25.9-1.38,2.12a26.33,26.33,0,0,0-3.49,4.44c-.66,1.34-1.31,2.76-1.87,4.14-2.16,5.33-1.86,8.9-3.81,11.3s-6.91.91-8.62-3.28c-2.91-7.14.57-10.56,2.43-13.51a22.76,22.76,0,0,0,2.86-6.08c.32-1.14.5-2.31.88-3.43A10.74,10.74,0,0,1,211.09,367.35Z" style="fill:#44A642"></path><path d="M211.09,367.35a3.43,3.43,0,0,1,1.13-1.28,14.59,14.59,0,0,0,1.67-1.1c.55-.49.92-1.15,1.47-1.64a1.77,1.77,0,0,1,2-.38.81.81,0,0,1,.12.14l-.27.34a3.5,3.5,0,0,0-.56,1.78c-.09.68-.09,1.36-.15,2.05a12.46,12.46,0,0,1-.36,2.1c-.09.31-.23.63-.3.95s.07.74,0,.86c.86-1.31,1.83-2.84,2.72-2.3.58.36,1.19,1.81,2.3,2.71s2.22,1.21,2.59,1.66-.25.9-1.38,2.12a26.33,26.33,0,0,0-3.49,4.44c-.66,1.34-1.31,2.76-1.87,4.14-2.16,5.33-1.86,8.9-3.81,11.3s-6.91.91-8.62-3.28c-2.91-7.14.57-10.56,2.43-13.51a22.76,22.76,0,0,0,2.86-6.08c.32-1.14.5-2.31.88-3.43A10.74,10.74,0,0,1,211.09,367.35Z" style="opacity:0.4"></path><path d="M215.86,370.31c.07-.32.21-.64.3-.95a12.46,12.46,0,0,0,.36-2.1c.06-.69.06-1.37.15-2.05a3.5,3.5,0,0,1,.56-1.78l.27-.34a.81.81,0,0,0-.12-.14,1.77,1.77,0,0,0-2,.38l-.05.06a5.14,5.14,0,0,0-.16.76c-.1.84-.15,2-.27,2.82a16,16,0,0,1-.93,3.52c-1.64,4.21-4.13,7.44-5.64,11.7a3.67,3.67,0,0,0-.26,1.81c.14.53.48,1,1,.81s.64-.67.79-1.06a62.62,62.62,0,0,1,3.5-7.52c.5-.91,1.06-1.79,1.5-2.73.26-.56.78-1.75,1-2.33C215.93,371.05,215.82,370.5,215.86,370.31Z" style="opacity:0.15"></path><path d="M206,386.45c1.07,1.9,2.18,2.26,3.09.63a9.14,9.14,0,0,0,.93-3.8l4.13,2.67s-2,2.76-1.56,4c.27.74,1.4.49,2.33-.12-.53,2.28-.91,4.05-2,5.44-2,2.49-6.91.91-8.62-3.28-2.43-6-.39-9.35,1.43-12C204.67,381.59,205,384.55,206,386.45Z" style="opacity:0.15"></path><path d="M222,375.49a28.13,28.13,0,0,0-3.37,4.31c-.66,1.34-1.31,2.76-1.87,4.14-.37.91-.66,1.77-.91,2.58a2.76,2.76,0,0,1-1,.88c-.82.15-1,0-.6-1.45.47-1.58,4.94-9.21,7.79-10.46Z" style="opacity:0.15"></path><path d="M215,386.93a.44.44,0,0,1-.54,0,22.89,22.89,0,0,0-5.57-3.39.45.45,0,1,1,.34-.84,23.4,23.4,0,0,1,5.82,3.54.45.45,0,0,1,0,.64A.28.28,0,0,1,215,386.93Z" style="fill:#e0e0e0"></path><path d="M216.08,384.83a.46.46,0,0,1-.6-.09,11,11,0,0,0-5.73-3.5.45.45,0,1,1,.17-.89,11.76,11.76,0,0,1,6.27,3.81.45.45,0,0,1-.07.64Z" style="fill:#e0e0e0"></path><path d="M217.23,382.94a.45.45,0,0,1-.62-.13,10.62,10.62,0,0,0-5.79-4,.46.46,0,1,1,.2-.89,11.38,11.38,0,0,1,6.34,4.34.45.45,0,0,1-.12.63Z" style="fill:#e0e0e0"></path><path d="M218.44,380.94h0a.46.46,0,0,1-.63-.17,9.7,9.7,0,0,0-5.66-4.11.47.47,0,0,1-.34-.55.46.46,0,0,1,.55-.34,10.47,10.47,0,0,1,6.25,4.55A.45.45,0,0,1,218.44,380.94Z" style="fill:#e0e0e0"></path><path d="M219.68,378.79l0,0a.45.45,0,0,1-.61-.2c-1.63-3.18-5.71-4.19-5.75-4.2a.45.45,0,0,1-.34-.55.46.46,0,0,1,.55-.34c.18.05,4.52,1.12,6.35,4.68A.45.45,0,0,1,219.68,378.79Z" style="fill:#e0e0e0"></path><path d="M220.9,377l0,0a.46.46,0,0,1-.62-.19,9.12,9.12,0,0,0-5.67-4.14.46.46,0,0,1-.37-.53.45.45,0,0,1,.52-.37,10,10,0,0,1,6.33,4.61A.46.46,0,0,1,220.9,377Z" style="fill:#e0e0e0"></path><path d="M269.59,277.2s-4.31,6.81-9.34,15.26c-4.77,8-7.29,11.86-9.7,16.15,0,0-2,6.14,8.58,11.52s15.27,1.22,15.27,1.22l5.8-7.32-1.09,13s2.14,4.24,12.3,4.55c7.52.23,11.21-2.15,11.21-2.15s6.9-24.27,7.94-33.65c0,0-3.67-7.56-14.69-15S269.59,277.2,269.59,277.2Z" style="fill:#455a64"></path><path d="M295.87,280.86c-11-7.39-26.28-3.66-26.28-3.66l-4,6.39c2.8-1.4,10,2.78,18.79,7.11,8,4,18.3,6.3,26.16,5.12C310.56,295.82,306.89,288.26,295.87,280.86Z" style="fill:#37474f"></path><path d="M333.83,225.62c-1.34,2.76-14.71,25.9-18.39,30.47-9-4.75-3.67-21.84-3.67-21.84,6.89-8.49,10.67-13.32,12.24-16a12.4,12.4,0,0,0,1.12-3.77c.29-1.41,2.86-18.75,2.44-24.07a3.82,3.82,0,0,0-1.2-2.46c-1.83-1.76-2.39-3.29-3.63-5.28-1-1.55-2-2.1-1.71-2.48a2.1,2.1,0,0,1,2.81-.38,14.7,14.7,0,0,1,2.65,2.25,19.32,19.32,0,0,0-2-5.89c-2.2-4.24-1.86-6.48,4.1-5.29,3.74.74,7.18,4,8.27,12.78a77.21,77.21,0,0,1,0,9.55c-.18,7.37-.31,19.14-.86,24.21A24.73,24.73,0,0,1,333.83,225.62Z" style="fill:#ffa8a7"></path><path d="M308,234.51c3.2-.69,14.33-13.94,14.33-13.94,3-.37,10.78,6.86,9.55,10.05-3.85,7.47-11.79,20-13,24.79-1.07,2.69-1.66-4.85-3.44-10.22C313,237.68,305.4,235.07,308,234.51Z" style="fill:#455a64"></path><path d="M276.48,249.93a38.74,38.74,0,0,1,2.43,10.81,7.53,7.53,0,0,1-1.9,5.68c-5.53,6.19-12.3,13.6-13,15,6.38-2.67,12,2.72,19,6.41,9.88,5.18,19.09,8.39,27.47,8,0,0,11-25.27,7.53-45.58-1.38-8-4.56-15.55-10.08-15.73-6.1-.21-14.84.14-13.35.09l-10.16-.75S273.7,242.91,276.48,249.93Z" style="fill:#ebebeb"></path><path d="M274.49,218.8c-.73-.85-4.08,1-6.58,3.52s-4.05,5.41-3,6.89c.62.86,9.18-1.33,9.18-1.33l2.08-6.88Z" style="fill:#37474f"></path><path d="M260,217.56c.71,3,14.78,25.88,17.93,31.5,7.42-6.05,5.67-15,5.67-15s-12-17.76-13.21-20.64a10.2,10.2,0,0,1-.16-3.09c0-1.44.8-13,2.37-18.09a3.88,3.88,0,0,1,1.71-2.15c2.16-1.31,3.05-2.68,4.69-4.35,1.28-1.31,2.37-1.63,2.21-2a2.08,2.08,0,0,0-2.66-1,14,14,0,0,0-3.07,1.61,19.2,19.2,0,0,1,3.19-5.32c3.06-3.66,3.23-5.92-2.85-6.06-3.81-.08-7.88,2.32-10.86,10.68a101.5,101.5,0,0,0-2.58,10.78c-1.44,7.24-2.06,12.2-2.62,17.27A12.1,12.1,0,0,0,260,217.56Z" style="fill:#ffa8a7"></path><path d="M286.18,234,274.49,218.8c.62,1.2.2,3.42-2.45,6.43-1.56,1.75-5.55,4.38-7.12,4l11.25,20.15c1,2.71,7.39-.36,9.25-5.71C288,236.18,286.18,234,286.18,234Z" style="fill:#455a64"></path><path d="M293.31,209.14a9.52,9.52,0,1,0,7.2-11.37A9.51,9.51,0,0,0,293.31,209.14Z" style="fill:#263238"></path><path d="M281.36,210a3,3,0,0,1,1-1.33c.56-.4,1.3-1.13,1.87-.48.37.42.37,1.24.53,1.75.57,1.76,1.13,3.52,1.7,5.27.06.18.66,1.55.54,1.7l1.5-1.92,3,14.9a1.94,1.94,0,0,1-1.92-1c-1-1.54-1.64-3.23-2.42-4.65s-2-3.4-2.86-4.88c-1.3-2.25-2.79-3.79-3.18-6.36a6.35,6.35,0,0,1,0-2.34A3.31,3.31,0,0,1,281.36,210Z" style="fill:#263238"></path><path d="M288.85,219.43c-.55.53-1.73-.49-2.71-1.14s-3.79-1.19-4.46,1.79,2.56,6.14,4.73,6.32c3.73.31,3.75-2.05,3.75-2.05l2.73,11.36c3.34,7.95,16.24,3.78,11.77-.83l-1-4.72a22.73,22.73,0,0,0,4.75-.81c2.47-1,3.63-3.36,3.78-6.31.25-4.73-.08-8.43-3.11-17-3.32-9.34-14.51-6.93-19.69-1.78S288.85,219.43,288.85,219.43Z" style="fill:#ffa8a7"></path><path d="M306.77,203.85a.44.44,0,0,0-.25.11.55.55,0,0,0-.13.25c-.51,1.68-2.44,2.52-4.07,2.55a5,5,0,0,1-1.83-.31,3.17,3.17,0,0,1-1.42-1.14,3.92,3.92,0,0,1-3.09,2.41,5.91,5.91,0,0,1-3.94-.88,2.87,2.87,0,0,1-1.17,3.28,5.63,5.63,0,0,1-1.9.6,2.48,2.48,0,0,1,.94,2.18,2.51,2.51,0,0,1-1.37,1.94,2.6,2.6,0,0,1,.82,1.52,10.44,10.44,0,0,1,.4,1.65c0,.52.06,2.32-.67,2.5-.32.08-2-1.67-2.95-2.22-.49-.28-.66-1.15-.79-1.64a24.47,24.47,0,0,1-.58-3.05,6,6,0,0,0-.43-2c-.33-.55-1.12-.87-1.64-1.21a3.53,3.53,0,0,1-1.41-1.55,6.41,6.41,0,0,1-.32-4.5,5.64,5.64,0,0,1,1.89-2.94,3.71,3.71,0,0,1,3.36-.63,5.61,5.61,0,0,1,2-5.24c1.84-1.46,3.85-1.18,6-.75a6.15,6.15,0,0,1,4.41-3,5.83,5.83,0,0,1,4.76,2.13,5.71,5.71,0,0,1,5.27-.28,5.21,5.21,0,0,1,2.56,2.51,6.45,6.45,0,0,1,.47,1.55,5.58,5.58,0,0,1,0,2.57,4.62,4.62,0,0,1-1.55,2A6.58,6.58,0,0,1,306.77,203.85Z" style="fill:#263238"></path><path d="M303.64,230.16s-6,.13-8.22-.48a6.79,6.79,0,0,1-3.38-2.11,9.29,9.29,0,0,0,2.3,2.87c1.88,1.54,9.64,1.24,9.64,1.24Z" style="fill:#f28f8f"></path><path d="M299.88,215.2a1.17,1.17,0,1,1-1.41-.94A1.19,1.19,0,0,1,299.88,215.2Z" style="fill:#263238"></path><path d="M304.66,224.38a1.17,1.17,0,1,1-2.29.51,1.17,1.17,0,1,1,2.29-.51Z" style="fill:#f28f8f"></path><path d="M297.61,211.48,295,212.77a1.51,1.51,0,0,1,.66-2A1.41,1.41,0,0,1,297.61,211.48Z" style="fill:#263238"></path><path d="M308.41,208.7l-2.89.24a1.4,1.4,0,0,1,1.27-1.57A1.53,1.53,0,0,1,308.41,208.7Z" style="fill:#263238"></path><path d="M308.48,212a1.19,1.19,0,0,1-.88,1.44,1.22,1.22,0,1,1,.88-1.44Z" style="fill:#263238"></path><polygon points="303.21 214.06 305.13 220.87 308.46 218.84 303.21 214.06" style="fill:#f28f8f"></polygon><path d="M280.2,314l8.44-12.32a58.93,58.93,0,0,0,13.42-3.15s-2.88,3.56-12,5.18l-8.69,12-2.3,11.36Z" style="fill:#37474f"></path><path d="M263.05,190.1a69.17,69.17,0,0,1,2.13-9.37c1.43-4.45,3.11-7.89,7.58-9s6.87.32,8.29,2-1.16,4.13-2.62,5.83a12.7,12.7,0,0,0-2.17,3.82s2.69-2.06,4.45-1.09,1.63,1.48,0,3-3.83,3.77-5.3,4.91a29.35,29.35,0,0,0-2.89,2.52S266.21,194,263.05,190.1Z" style="fill:#44A642"></path><path d="M263.05,190.1a69.17,69.17,0,0,1,2.13-9.37c1.43-4.45,3.11-7.89,7.58-9s6.87.32,8.29,2-1.16,4.13-2.62,5.83a12.7,12.7,0,0,0-2.17,3.82s2.69-2.06,4.45-1.09,1.63,1.48,0,3-3.83,3.77-5.3,4.91a29.35,29.35,0,0,0-2.89,2.52S266.21,194,263.05,190.1Z" style="opacity:0.4"></path><path d="M263.05,190.1a6.15,6.15,0,0,0-.58,3.62s2.85,2.9,9.26,2.09a3.94,3.94,0,0,0,.79-3S266.5,193.46,263.05,190.1Z" style="fill:#37474f"></path><path d="M337.22,189.11a69.9,69.9,0,0,0-.07-9.61c-.44-4.65-1.35-8.37-5.47-10.41s-6.78-1.17-8.54.21-.24,4.38.83,6.35a29.67,29.67,0,0,1,1.78,4.1s-2.19-2.59-4.11-2-1.92,1.09-.65,2.93,2.93,4.51,4.12,5.94a29.79,29.79,0,0,1,2.29,3.08S333.29,192.26,337.22,189.11Z" style="fill:#44A642"></path><path d="M337.22,189.11a69.9,69.9,0,0,0-.07-9.61c-.44-4.65-1.35-8.37-5.47-10.41s-6.78-1.17-8.54.21-.24,4.38.83,6.35a29.67,29.67,0,0,1,1.78,4.1s-2.19-2.59-4.11-2-1.92,1.09-.65,2.93,2.93,4.51,4.12,5.94a29.79,29.79,0,0,1,2.29,3.08S333.29,192.26,337.22,189.11Z" style="opacity:0.4"></path><path d="M337.22,189.11a6.16,6.16,0,0,1-.22,3.66s-3.4,2.23-9.49,0a3.87,3.87,0,0,1-.11-3.13S333.13,191.65,337.22,189.11Z" style="fill:#37474f"></path></g></g></svg>
